<?xml version="1.0" encoding="utf-8" standalone="no"?>
<!DOCTYPE svg PUBLIC "-//W3C//DTD SVG 1.1//EN"
  "http://www.w3.org/Graphics/SVG/1.1/DTD/svg11.dtd">
<svg height="936pt" version="1.1" viewBox="0 0 936 936" width="936pt" xmlns="http://www.w3.org/2000/svg" xmlns:xlink="http://www.w3.org/1999/xlink">
 <metadata>
  <rdf:RDF xmlns:cc="http://creativecommons.org/ns#" xmlns:dc="http://purl.org/dc/elements/1.1/" xmlns:rdf="http://www.w3.org/1999/02/22-rdf-syntax-ns#">
   <cc:Work>
    <dc:type rdf:resource="http://purl.org/dc/dcmitype/StillImage"/>
    <dc:date>2022-04-30T22:35:37.566425</dc:date>
    <dc:format>image/svg+xml</dc:format>
    <dc:creator>
     <cc:Agent>
      <dc:title>Matplotlib v3.4.3, https://matplotlib.org/</dc:title>
     </cc:Agent>
    </dc:creator>
   </cc:Work>
  </rdf:RDF>
 </metadata>
 <defs>
  <style type="text/css">*{stroke-linecap:butt;stroke-linejoin:round;}</style>
 </defs>
 <g id="figure_1">
  <g id="patch_1">
   <path d="M 0 936 
L 936 936 
L 936 0 
L 0 0 
z
" style="fill:none;"/>
  </g>
  <g id="axes_1">
   <g id="line2d_1">
    <path clip-path="url(#pb821e13f41)" d="M 479.7 642.33 
L 470.312633 608.199977 
" style="fill:none;stroke:#0000ff;stroke-linecap:square;stroke-opacity:0.3;stroke-width:1.5;"/>
   </g>
   <g id="line2d_2">
    <path clip-path="url(#pb821e13f41)" d="M 470.312633 608.199977 
L 452.177633 577.599835 
" style="fill:none;stroke:#0000ff;stroke-linecap:square;stroke-opacity:0.3;stroke-width:1.5;"/>
   </g>
   <g id="line2d_3">
    <path clip-path="url(#pb821e13f41)" d="M 452.177633 577.599835 
L 426.53087 552.614924 
" style="fill:none;stroke:#0000ff;stroke-linecap:square;stroke-opacity:0.3;stroke-width:1.5;"/>
   </g>
   <g id="line2d_4">
    <path clip-path="url(#pb821e13f41)" d="M 426.53087 552.614924 
L 398.746438 529.902667 
" style="fill:none;stroke:#0000ff;stroke-linecap:square;stroke-opacity:0.3;stroke-width:1.5;"/>
   </g>
   <g id="line2d_5">
    <path clip-path="url(#pb821e13f41)" d="M 398.746438 529.902667 
L 365.874655 514.969873 
" style="fill:none;stroke:#0000ff;stroke-linecap:square;stroke-opacity:0.3;stroke-width:1.5;"/>
   </g>
   <g id="line2d_6">
    <path clip-path="url(#pb821e13f41)" d="M 426.53087 552.614924 
L 396.820226 532.348174 
" style="fill:none;stroke:#0000ff;stroke-linecap:square;stroke-opacity:0.3;stroke-width:1.5;"/>
   </g>
   <g id="line2d_7">
    <path clip-path="url(#pb821e13f41)" d="M 396.820226 532.348174 
L 362.737574 520.263235 
" style="fill:none;stroke:#0000ff;stroke-linecap:square;stroke-opacity:0.3;stroke-width:1.5;"/>
   </g>
   <g id="line2d_8">
    <path clip-path="url(#pb821e13f41)" d="M 362.737574 520.263235 
L 326.605593 517.183674 
" style="fill:none;stroke:#0000ff;stroke-linecap:square;stroke-opacity:0.3;stroke-width:1.5;"/>
   </g>
   <g id="line2d_9">
    <path clip-path="url(#pb821e13f41)" d="M 326.605593 517.183674 
L 290.886615 523.319358 
" style="fill:none;stroke:#0000ff;stroke-linecap:square;stroke-opacity:0.3;stroke-width:1.5;"/>
   </g>
   <g id="line2d_10">
    <path clip-path="url(#pb821e13f41)" d="M 290.886615 523.319358 
L 256.295302 533.944497 
" style="fill:none;stroke:#0000ff;stroke-linecap:square;stroke-opacity:0.3;stroke-width:1.5;"/>
   </g>
   <g id="line2d_11">
    <path clip-path="url(#pb821e13f41)" d="M 256.295302 533.944497 
L 222.491376 546.750883 
" style="fill:none;stroke:#0000ff;stroke-linecap:square;stroke-opacity:0.3;stroke-width:1.5;"/>
   </g>
   <g id="line2d_12">
    <path clip-path="url(#pb821e13f41)" d="M 256.295302 533.944497 
L 223.423518 548.877291 
" style="fill:none;stroke:#0000ff;stroke-linecap:square;stroke-opacity:0.3;stroke-width:1.5;"/>
   </g>
   <g id="line2d_13">
    <path clip-path="url(#pb821e13f41)" d="M 223.423518 548.877291 
L 192.83371 567.862235 
" style="fill:none;stroke:#0000ff;stroke-linecap:square;stroke-opacity:0.3;stroke-width:1.5;"/>
   </g>
   <g id="line2d_14">
    <path clip-path="url(#pb821e13f41)" d="M 192.83371 567.862235 
L 164.058785 589.372211 
" style="fill:none;stroke:#0000ff;stroke-linecap:square;stroke-opacity:0.3;stroke-width:1.5;"/>
   </g>
   <g id="line2d_15">
    <path clip-path="url(#pb821e13f41)" d="M 192.83371 567.862235 
L 166.092661 591.73354 
" style="fill:none;stroke:#0000ff;stroke-linecap:square;stroke-opacity:0.3;stroke-width:1.5;"/>
   </g>
   <g id="line2d_16">
    <path clip-path="url(#pb821e13f41)" d="M 192.83371 567.862235 
L 168.330054 593.913193 
" style="fill:none;stroke:#0000ff;stroke-linecap:square;stroke-opacity:0.3;stroke-width:1.5;"/>
   </g>
   <g id="line2d_17">
    <path clip-path="url(#pb821e13f41)" d="M 223.423518 548.877291 
L 195.639086 571.589548 
" style="fill:none;stroke:#0000ff;stroke-linecap:square;stroke-opacity:0.3;stroke-width:1.5;"/>
   </g>
   <g id="line2d_18">
    <path clip-path="url(#pb821e13f41)" d="M 195.639086 571.589548 
L 174.835469 600.533466 
" style="fill:none;stroke:#0000ff;stroke-linecap:square;stroke-opacity:0.3;stroke-width:1.5;"/>
   </g>
   <g id="line2d_19">
    <path clip-path="url(#pb821e13f41)" d="M 256.295302 533.944497 
L 224.496422 550.939754 
" style="fill:none;stroke:#0000ff;stroke-linecap:square;stroke-opacity:0.3;stroke-width:1.5;"/>
   </g>
   <g id="line2d_20">
    <path clip-path="url(#pb821e13f41)" d="M 224.496422 550.939754 
L 194.339019 570.570273 
" style="fill:none;stroke:#0000ff;stroke-linecap:square;stroke-opacity:0.3;stroke-width:1.5;"/>
   </g>
   <g id="line2d_21">
    <path clip-path="url(#pb821e13f41)" d="M 194.339019 570.570273 
L 170.424547 597.135781 
" style="fill:none;stroke:#0000ff;stroke-linecap:square;stroke-opacity:0.3;stroke-width:1.5;"/>
   </g>
   <g id="line2d_22">
    <path clip-path="url(#pb821e13f41)" d="M 224.496422 550.939754 
L 196.210012 573.056134 
" style="fill:none;stroke:#0000ff;stroke-linecap:square;stroke-opacity:0.3;stroke-width:1.5;"/>
   </g>
   <g id="line2d_23">
    <path clip-path="url(#pb821e13f41)" d="M 196.210012 573.056134 
L 170.009871 597.490057 
" style="fill:none;stroke:#0000ff;stroke-linecap:square;stroke-opacity:0.3;stroke-width:1.5;"/>
   </g>
   <g id="line2d_24">
    <path clip-path="url(#pb821e13f41)" d="M 196.210012 573.056134 
L 172.295539 599.621642 
" style="fill:none;stroke:#0000ff;stroke-linecap:square;stroke-opacity:0.3;stroke-width:1.5;"/>
   </g>
   <g id="line2d_25">
    <path clip-path="url(#pb821e13f41)" d="M 196.210012 573.056134 
L 174.763211 601.551048 
" style="fill:none;stroke:#0000ff;stroke-linecap:square;stroke-opacity:0.3;stroke-width:1.5;"/>
   </g>
   <g id="line2d_26">
    <path clip-path="url(#pb821e13f41)" d="M 224.496422 550.939754 
L 198.296281 575.373677 
" style="fill:none;stroke:#0000ff;stroke-linecap:square;stroke-opacity:0.3;stroke-width:1.5;"/>
   </g>
   <g id="line2d_27">
    <path clip-path="url(#pb821e13f41)" d="M 198.296281 575.373677 
L 179.480375 605.581133 
" style="fill:none;stroke:#0000ff;stroke-linecap:square;stroke-opacity:0.3;stroke-width:1.5;"/>
   </g>
   <g id="line2d_28">
    <path clip-path="url(#pb821e13f41)" d="M 256.295302 533.944497 
L 225.705494 552.929441 
" style="fill:none;stroke:#0000ff;stroke-linecap:square;stroke-opacity:0.3;stroke-width:1.5;"/>
   </g>
   <g id="line2d_29">
    <path clip-path="url(#pb821e13f41)" d="M 225.705494 552.929441 
L 197.921062 575.641699 
" style="fill:none;stroke:#0000ff;stroke-linecap:square;stroke-opacity:0.3;stroke-width:1.5;"/>
   </g>
   <g id="line2d_30">
    <path clip-path="url(#pb821e13f41)" d="M 197.921062 575.641699 
L 177.117445 604.585617 
" style="fill:none;stroke:#0000ff;stroke-linecap:square;stroke-opacity:0.3;stroke-width:1.5;"/>
   </g>
   <g id="line2d_31">
    <path clip-path="url(#pb821e13f41)" d="M 225.705494 552.929441 
L 201.201837 578.980399 
" style="fill:none;stroke:#0000ff;stroke-linecap:square;stroke-opacity:0.3;stroke-width:1.5;"/>
   </g>
   <g id="line2d_32">
    <path clip-path="url(#pb821e13f41)" d="M 201.201837 578.980399 
L 184.454215 610.32204 
" style="fill:none;stroke:#0000ff;stroke-linecap:square;stroke-opacity:0.3;stroke-width:1.5;"/>
   </g>
   <g id="line2d_33">
    <path clip-path="url(#pb821e13f41)" d="M 290.886615 523.319358 
L 258.014832 538.252152 
" style="fill:none;stroke:#0000ff;stroke-linecap:square;stroke-opacity:0.3;stroke-width:1.5;"/>
   </g>
   <g id="line2d_34">
    <path clip-path="url(#pb821e13f41)" d="M 258.014832 538.252152 
L 230.2304 560.964409 
" style="fill:none;stroke:#0000ff;stroke-linecap:square;stroke-opacity:0.3;stroke-width:1.5;"/>
   </g>
   <g id="line2d_35">
    <path clip-path="url(#pb821e13f41)" d="M 230.2304 560.964409 
L 205.726743 587.015367 
" style="fill:none;stroke:#0000ff;stroke-linecap:square;stroke-opacity:0.3;stroke-width:1.5;"/>
   </g>
   <g id="line2d_36">
    <path clip-path="url(#pb821e13f41)" d="M 205.726743 587.015367 
L 188.979121 618.357008 
" style="fill:none;stroke:#0000ff;stroke-linecap:square;stroke-opacity:0.3;stroke-width:1.5;"/>
   </g>
   <g id="line2d_37">
    <path clip-path="url(#pb821e13f41)" d="M 230.2304 560.964409 
L 209.426783 589.908328 
" style="fill:none;stroke:#0000ff;stroke-linecap:square;stroke-opacity:0.3;stroke-width:1.5;"/>
   </g>
   <g id="line2d_38">
    <path clip-path="url(#pb821e13f41)" d="M 209.426783 589.908328 
L 190.610877 620.115784 
" style="fill:none;stroke:#0000ff;stroke-linecap:square;stroke-opacity:0.3;stroke-width:1.5;"/>
   </g>
   <g id="line2d_39">
    <path clip-path="url(#pb821e13f41)" d="M 209.426783 589.908328 
L 192.67916 621.249969 
" style="fill:none;stroke:#0000ff;stroke-linecap:square;stroke-opacity:0.3;stroke-width:1.5;"/>
   </g>
   <g id="line2d_40">
    <path clip-path="url(#pb821e13f41)" d="M 209.426783 589.908328 
L 194.81916 622.249944 
" style="fill:none;stroke:#0000ff;stroke-linecap:square;stroke-opacity:0.3;stroke-width:1.5;"/>
   </g>
   <g id="line2d_41">
    <path clip-path="url(#pb821e13f41)" d="M 209.426783 589.908328 
L 197.021712 623.111427 
" style="fill:none;stroke:#0000ff;stroke-linecap:square;stroke-opacity:0.3;stroke-width:1.5;"/>
   </g>
   <g id="line2d_42">
    <path clip-path="url(#pb821e13f41)" d="M 426.53087 552.614924 
L 395.120129 534.947924 
" style="fill:none;stroke:#0000ff;stroke-linecap:square;stroke-opacity:0.3;stroke-width:1.5;"/>
   </g>
   <g id="line2d_43">
    <path clip-path="url(#pb821e13f41)" d="M 395.120129 534.947924 
L 360.085999 525.802812 
" style="fill:none;stroke:#0000ff;stroke-linecap:square;stroke-opacity:0.3;stroke-width:1.5;"/>
   </g>
   <g id="line2d_44">
    <path clip-path="url(#pb821e13f41)" d="M 360.085999 525.802812 
L 323.815999 525.802812 
" style="fill:none;stroke:#0000ff;stroke-linecap:square;stroke-opacity:0.3;stroke-width:1.5;"/>
   </g>
   <g id="line2d_45">
    <path clip-path="url(#pb821e13f41)" d="M 323.815999 525.802812 
L 288.781869 534.947924 
" style="fill:none;stroke:#0000ff;stroke-linecap:square;stroke-opacity:0.3;stroke-width:1.5;"/>
   </g>
   <g id="line2d_46">
    <path clip-path="url(#pb821e13f41)" d="M 288.781869 534.947924 
L 257.371128 552.614924 
" style="fill:none;stroke:#0000ff;stroke-linecap:square;stroke-opacity:0.3;stroke-width:1.5;"/>
   </g>
   <g id="line2d_47">
    <path clip-path="url(#pb821e13f41)" d="M 257.371128 552.614924 
L 231.724365 577.599835 
" style="fill:none;stroke:#0000ff;stroke-linecap:square;stroke-opacity:0.3;stroke-width:1.5;"/>
   </g>
   <g id="line2d_48">
    <path clip-path="url(#pb821e13f41)" d="M 231.724365 577.599835 
L 213.589365 608.199977 
" style="fill:none;stroke:#0000ff;stroke-linecap:square;stroke-opacity:0.3;stroke-width:1.5;"/>
   </g>
   <g id="line2d_49">
    <path clip-path="url(#pb821e13f41)" d="M 213.589365 608.199977 
L 204.201998 642.33 
" style="fill:none;stroke:#0000ff;stroke-linecap:square;stroke-opacity:0.3;stroke-width:1.5;"/>
   </g>
   <g id="text_1">
    <!-- male-tilted tree.json -->
    <g transform="translate(418.96875 106.32)scale(0.12 -0.12)">
     <defs>
      <path d="M 3328 2828 
Q 3544 3216 3844 3400 
Q 4144 3584 4550 3584 
Q 5097 3584 5394 3201 
Q 5691 2819 5691 2113 
L 5691 0 
L 5113 0 
L 5113 2094 
Q 5113 2597 4934 2840 
Q 4756 3084 4391 3084 
Q 3944 3084 3684 2787 
Q 3425 2491 3425 1978 
L 3425 0 
L 2847 0 
L 2847 2094 
Q 2847 2600 2669 2842 
Q 2491 3084 2119 3084 
Q 1678 3084 1418 2786 
Q 1159 2488 1159 1978 
L 1159 0 
L 581 0 
L 581 3500 
L 1159 3500 
L 1159 2956 
Q 1356 3278 1631 3431 
Q 1906 3584 2284 3584 
Q 2666 3584 2933 3390 
Q 3200 3197 3328 2828 
z
" id="DejaVuSans-6d" transform="scale(0.015625)"/>
      <path d="M 2194 1759 
Q 1497 1759 1228 1600 
Q 959 1441 959 1056 
Q 959 750 1161 570 
Q 1363 391 1709 391 
Q 2188 391 2477 730 
Q 2766 1069 2766 1631 
L 2766 1759 
L 2194 1759 
z
M 3341 1997 
L 3341 0 
L 2766 0 
L 2766 531 
Q 2569 213 2275 61 
Q 1981 -91 1556 -91 
Q 1019 -91 701 211 
Q 384 513 384 1019 
Q 384 1609 779 1909 
Q 1175 2209 1959 2209 
L 2766 2209 
L 2766 2266 
Q 2766 2663 2505 2880 
Q 2244 3097 1772 3097 
Q 1472 3097 1187 3025 
Q 903 2953 641 2809 
L 641 3341 
Q 956 3463 1253 3523 
Q 1550 3584 1831 3584 
Q 2591 3584 2966 3190 
Q 3341 2797 3341 1997 
z
" id="DejaVuSans-61" transform="scale(0.015625)"/>
      <path d="M 603 4863 
L 1178 4863 
L 1178 0 
L 603 0 
L 603 4863 
z
" id="DejaVuSans-6c" transform="scale(0.015625)"/>
      <path d="M 3597 1894 
L 3597 1613 
L 953 1613 
Q 991 1019 1311 708 
Q 1631 397 2203 397 
Q 2534 397 2845 478 
Q 3156 559 3463 722 
L 3463 178 
Q 3153 47 2828 -22 
Q 2503 -91 2169 -91 
Q 1331 -91 842 396 
Q 353 884 353 1716 
Q 353 2575 817 3079 
Q 1281 3584 2069 3584 
Q 2775 3584 3186 3129 
Q 3597 2675 3597 1894 
z
M 3022 2063 
Q 3016 2534 2758 2815 
Q 2500 3097 2075 3097 
Q 1594 3097 1305 2825 
Q 1016 2553 972 2059 
L 3022 2063 
z
" id="DejaVuSans-65" transform="scale(0.015625)"/>
      <path d="M 313 2009 
L 1997 2009 
L 1997 1497 
L 313 1497 
L 313 2009 
z
" id="DejaVuSans-2d" transform="scale(0.015625)"/>
      <path d="M 1172 4494 
L 1172 3500 
L 2356 3500 
L 2356 3053 
L 1172 3053 
L 1172 1153 
Q 1172 725 1289 603 
Q 1406 481 1766 481 
L 2356 481 
L 2356 0 
L 1766 0 
Q 1100 0 847 248 
Q 594 497 594 1153 
L 594 3053 
L 172 3053 
L 172 3500 
L 594 3500 
L 594 4494 
L 1172 4494 
z
" id="DejaVuSans-74" transform="scale(0.015625)"/>
      <path d="M 603 3500 
L 1178 3500 
L 1178 0 
L 603 0 
L 603 3500 
z
M 603 4863 
L 1178 4863 
L 1178 4134 
L 603 4134 
L 603 4863 
z
" id="DejaVuSans-69" transform="scale(0.015625)"/>
      <path d="M 2906 2969 
L 2906 4863 
L 3481 4863 
L 3481 0 
L 2906 0 
L 2906 525 
Q 2725 213 2448 61 
Q 2172 -91 1784 -91 
Q 1150 -91 751 415 
Q 353 922 353 1747 
Q 353 2572 751 3078 
Q 1150 3584 1784 3584 
Q 2172 3584 2448 3432 
Q 2725 3281 2906 2969 
z
M 947 1747 
Q 947 1113 1208 752 
Q 1469 391 1925 391 
Q 2381 391 2643 752 
Q 2906 1113 2906 1747 
Q 2906 2381 2643 2742 
Q 2381 3103 1925 3103 
Q 1469 3103 1208 2742 
Q 947 2381 947 1747 
z
" id="DejaVuSans-64" transform="scale(0.015625)"/>
      <path id="DejaVuSans-20" transform="scale(0.015625)"/>
      <path d="M 2631 2963 
Q 2534 3019 2420 3045 
Q 2306 3072 2169 3072 
Q 1681 3072 1420 2755 
Q 1159 2438 1159 1844 
L 1159 0 
L 581 0 
L 581 3500 
L 1159 3500 
L 1159 2956 
Q 1341 3275 1631 3429 
Q 1922 3584 2338 3584 
Q 2397 3584 2469 3576 
Q 2541 3569 2628 3553 
L 2631 2963 
z
" id="DejaVuSans-72" transform="scale(0.015625)"/>
      <path d="M 684 794 
L 1344 794 
L 1344 0 
L 684 0 
L 684 794 
z
" id="DejaVuSans-2e" transform="scale(0.015625)"/>
      <path d="M 603 3500 
L 1178 3500 
L 1178 -63 
Q 1178 -731 923 -1031 
Q 669 -1331 103 -1331 
L -116 -1331 
L -116 -844 
L 38 -844 
Q 366 -844 484 -692 
Q 603 -541 603 -63 
L 603 3500 
z
M 603 4863 
L 1178 4863 
L 1178 4134 
L 603 4134 
L 603 4863 
z
" id="DejaVuSans-6a" transform="scale(0.015625)"/>
      <path d="M 2834 3397 
L 2834 2853 
Q 2591 2978 2328 3040 
Q 2066 3103 1784 3103 
Q 1356 3103 1142 2972 
Q 928 2841 928 2578 
Q 928 2378 1081 2264 
Q 1234 2150 1697 2047 
L 1894 2003 
Q 2506 1872 2764 1633 
Q 3022 1394 3022 966 
Q 3022 478 2636 193 
Q 2250 -91 1575 -91 
Q 1294 -91 989 -36 
Q 684 19 347 128 
L 347 722 
Q 666 556 975 473 
Q 1284 391 1588 391 
Q 1994 391 2212 530 
Q 2431 669 2431 922 
Q 2431 1156 2273 1281 
Q 2116 1406 1581 1522 
L 1381 1569 
Q 847 1681 609 1914 
Q 372 2147 372 2553 
Q 372 3047 722 3315 
Q 1072 3584 1716 3584 
Q 2034 3584 2315 3537 
Q 2597 3491 2834 3397 
z
" id="DejaVuSans-73" transform="scale(0.015625)"/>
      <path d="M 1959 3097 
Q 1497 3097 1228 2736 
Q 959 2375 959 1747 
Q 959 1119 1226 758 
Q 1494 397 1959 397 
Q 2419 397 2687 759 
Q 2956 1122 2956 1747 
Q 2956 2369 2687 2733 
Q 2419 3097 1959 3097 
z
M 1959 3584 
Q 2709 3584 3137 3096 
Q 3566 2609 3566 1747 
Q 3566 888 3137 398 
Q 2709 -91 1959 -91 
Q 1206 -91 779 398 
Q 353 888 353 1747 
Q 353 2609 779 3096 
Q 1206 3584 1959 3584 
z
" id="DejaVuSans-6f" transform="scale(0.015625)"/>
      <path d="M 3513 2113 
L 3513 0 
L 2938 0 
L 2938 2094 
Q 2938 2591 2744 2837 
Q 2550 3084 2163 3084 
Q 1697 3084 1428 2787 
Q 1159 2491 1159 1978 
L 1159 0 
L 581 0 
L 581 3500 
L 1159 3500 
L 1159 2956 
Q 1366 3272 1645 3428 
Q 1925 3584 2291 3584 
Q 2894 3584 3203 3211 
Q 3513 2838 3513 2113 
z
" id="DejaVuSans-6e" transform="scale(0.015625)"/>
     </defs>
     <use xlink:href="#DejaVuSans-6d"/>
     <use x="97.412109" xlink:href="#DejaVuSans-61"/>
     <use x="158.691406" xlink:href="#DejaVuSans-6c"/>
     <use x="186.474609" xlink:href="#DejaVuSans-65"/>
     <use x="247.998047" xlink:href="#DejaVuSans-2d"/>
     <use x="284.082031" xlink:href="#DejaVuSans-74"/>
     <use x="323.291016" xlink:href="#DejaVuSans-69"/>
     <use x="351.074219" xlink:href="#DejaVuSans-6c"/>
     <use x="378.857422" xlink:href="#DejaVuSans-74"/>
     <use x="418.066406" xlink:href="#DejaVuSans-65"/>
     <use x="479.589844" xlink:href="#DejaVuSans-64"/>
     <use x="543.066406" xlink:href="#DejaVuSans-20"/>
     <use x="574.853516" xlink:href="#DejaVuSans-74"/>
     <use x="614.0625" xlink:href="#DejaVuSans-72"/>
     <use x="652.925781" xlink:href="#DejaVuSans-65"/>
     <use x="714.449219" xlink:href="#DejaVuSans-65"/>
     <use x="775.972656" xlink:href="#DejaVuSans-2e"/>
     <use x="807.759766" xlink:href="#DejaVuSans-6a"/>
     <use x="835.542969" xlink:href="#DejaVuSans-73"/>
     <use x="887.642578" xlink:href="#DejaVuSans-6f"/>
     <use x="948.824219" xlink:href="#DejaVuSans-6e"/>
    </g>
   </g>
  </g>
 </g>
 <defs>
  <clipPath id="pb821e13f41">
   <rect height="706.68" width="725.4" x="117" y="112.32"/>
  </clipPath>
 </defs>
</svg>
